<svg t="1719026736153" class="icon" viewBox="0 0 1024 1024" version="1.1" xmlns="http://www.w3.org/2000/svg" p-id="6248" width="30" height="30"><path d="M512 23.272727c269.917091 0 488.727273 218.810182 488.727273 488.727273s-218.810182 488.727273-488.727273 488.727273S23.272727 781.917091 23.272727 512 242.082909 23.272727 512 23.272727z m0 93.090909C293.492364 116.363636 116.363636 293.492364 116.363636 512s177.128727 395.636364 395.636364 395.636364 395.636364-177.128727 395.636364-395.636364S730.507636 116.363636 512 116.363636z m-5.701818 572.672c17.896727 0 33.349818 5.818182 45.544727 17.454546 11.380364 11.636364 17.873455 26.600727 17.873455 44.893091 0 18.269091-6.516364 34.071273-18.688 45.707636-12.194909 11.636364-26.833455 17.454545-44.730182 17.454546-17.873455 0-32.512-6.656-44.683637-18.292364-12.218182-11.636364-17.92-26.600727-17.92-44.869818 0-18.292364 5.701818-33.256727 17.92-44.893091 12.171636-11.636364 26.810182-17.454545 44.683637-17.454546zM520.96 209.454545c52.829091 0 95.930182 14.126545 128.442182 44.055273C681.890909 282.600727 698.181818 322.490182 698.181818 373.201455c0 41.541818-10.565818 75.636364-30.091636 102.23709-7.307636 8.308364-30.882909 30.743273-69.911273 65.652364a128.372364 128.372364 0 0 0-32.512 41.565091c-8.145455 16.616727-10.612364 17.664-15.895273 41.797818-3.165091 25.064727-20.084364 36.072727-50.757818 33.024-30.673455-3.072-43.287273-23.970909-37.771636-62.766545 2.397091-11.380364 7.400727-24.529455 14.987636-39.493818 10.565818-22.434909 42.263273-57.344 95.115637-105.565091l9.774545-11.636364c14.615273-18.269091 21.946182-38.213818 21.946182-58.996364 0-27.438545-8.145455-49.035636-22.784-64.837818-15.429818-15.802182-37.376-23.272727-65.024-23.272727-35.770182 0-60.974545 10.798545-76.427637 34.071273-13.824 19.130182-20.317091 46.545455-20.31709 81.454545-5.259636 28.811636-20.992 43.217455-47.173819 43.217455s-41.355636-14.405818-45.521454-43.217455c0-61.509818 17.082182-109.707636 52.829091-144.616727C413.649455 226.909091 460.8 209.454545 520.96 209.454545z" fill="#282C33" p-id="6249"></path></svg>